HIERARCHY
ROOT pelvis
{
  OFFSET 0 100 0
  CHANNELS 6 Xposition Yposition Zposition Zrotation Xrotation Yrotation
  JOINT pelvis_right_femur
  {
    OFFSET -10.78128 -3.44521 -0.5502486
    CHANNELS 3 Zrotation Xrotation Yrotation
    JOINT right_femur_tibia
    {
      OFFSET -0.8047443 -44.0398 -0.1307829
      CHANNELS 3 Zrotation Xrotation Yrotation
      JOINT right_tibia_foot
      {
        OFFSET 3.006224 -47.83518 -5
        CHANNELS 3 Zrotation Xrotation Yrotation
        End Site
        {
          OFFSET 0 -5 15
        }
      }
    }
  }
  JOINT pelvis_left_femur
  {
    OFFSET 10.78128 -3.44521 -0.5502486
    CHANNELS 3 Zrotation Xrotation Yrotation
    JOINT left_femur_tibia
    {
      OFFSET 0.8047443 -44.0398 -0.1307829
      CHANNELS 3 Zrotation Xrotation Yrotation
      JOINT left_tibia_foot
      {
        OFFSET -4.370144 -48.10324 -4.275266
        CHANNELS 3 Zrotation Xrotation Yrotation
        End Site
        {
          OFFSET 0 -5 15
        }
      }
    }
  }
  JOINT pelvis_spine1
  {
    OFFSET 0 6.468898 -3.129235
    CHANNELS 3 Zrotation Xrotation Yrotation
    JOINT spine1
    {
      OFFSET 0 23.15396 4.99043
      CHANNELS 3 Zrotation Xrotation Yrotation
      JOINT spine2
      {
        OFFSET 0 20.79997 -5.064912
        CHANNELS 3 Zrotation Xrotation Yrotation
        JOINT neck
        {
          OFFSET 0 14.38658 9.616178
          CHANNELS 3 Zrotation Xrotation Yrotation
          End Site
          {
            OFFSET 0 20 0
          }
        }
      }
      JOINT right_manubrium
      {
        OFFSET -5.722621 16.35077 3.967754
        CHANNELS 3 Zrotation Xrotation Yrotation
        JOINT right_clavicle
        {
          OFFSET -13.16364 1.694482 -4.693211
          CHANNELS 3 Zrotation Xrotation Yrotation
          JOINT right_humerus
          {
            OFFSET -28.5034 -0.3100689 -2.792744
            CHANNELS 3 Zrotation Xrotation Yrotation
            JOINT right_radius
            {
              OFFSET -25.15693 0.02248979 -1.271978
              CHANNELS 3 Zrotation Xrotation Yrotation
              End Site
              {
                OFFSET -15 0 0
              }
            }
          }
        }
      }
      JOINT left_manubrium
      {
        OFFSET 5.722621 16.35077 3.967754
        CHANNELS 3 Zrotation Xrotation Yrotation
        JOINT left_clavicle
        {
          OFFSET 13.16364 1.694482 -4.693211
          CHANNELS 3 Zrotation Xrotation Yrotation
          JOINT left_humerus
          {
            OFFSET 29.39168 -1.063119 -2.237045
            CHANNELS 3 Zrotation Xrotation Yrotation
            JOINT left_radius
            {
              OFFSET 24.59957 -0.9528479 0.9047498
              CHANNELS 3 Zrotation Xrotation Yrotation
              End Site
              {
                OFFSET 15 -0 -0
              }
            }
          }
        }
      }
    }
  }
}
MOTION
Frames: 13
Frame Time: 0.0416666666667
0 103.5113 0 2.954634 -0.4743758 0.1448767 2.292983 -15.0303 10.78626 -0 37.70217 -0 -3.386821 -17.68752 -3.559287 -9.160036 9.699791 -23.07188 -0 4.815771 -0 21.18334 -8.43899 29.19696 -2.440595 -1.86049 5.642372 1.869119 10.94714 -6.298418 1.762043 21.80303 6.397274 2.909991 -25.3435 10.08612 5.736293 -20.49204 11.01024 87.34105 40.00473 -17.70671 -0 0 13.95526 -6.975226 8.462619 5.094138 4.533205 -19.32154 -3.113433 -91.812 22.09886 21.64511 0 0 -16.72372 15.28096 12.06338 -2.195692
0.4534065 103.369 1.725486 2.489639 0.4072145 0.2434515 3.448742 -17.72892 11.16432 -0 37.22179 -0 -3.893953 -17.0148 -3.389675 -9.083936 9.820943 -22.57919 -0 5.229439 -0 22.18533 -8.733278 29.59636 -2.415897 -1.842093 5.493444 2.112419 10.92804 -6.490832 1.683346 21.70467 6.562092 2.861797 -25.67197 10.24936 5.67212 -20.47622 11.1566 87.61951 40.03235 -18.18143 -0 0 13.59485 -6.591313 8.469908 5.094185 4.508021 -19.44959 -3.192497 -91.40247 22.15193 21.22142 0 0 -18.05 15.4403 11.55222 -2.359965
0.7589169 102.2916 4.613934 1.945928 -2.730156 0.4469647 2.125125 -20.36255 -0.4973817 -0 23.16347 -0 -9.376695 -8.229878 0.04494625 -7.583885 12.73986 -19.16094 -0 6.657 -0 14.69651 -14.717 23.52778 -2.354994 -1.33936 5.334986 1.710979 11.03665 -6.131743 1.738155 21.93359 6.369883 2.909133 -24.00742 9.649326 6.017094 -19.4322 11.30766 86.74467 39.88571 -16.88747 -0 0 13.03151 -8.400712 9.16104 6.028918 4.40625 -19.08451 -3.173871 -90.67375 21.21288 20.36736 0 0 -16.63072 14.3609 11.75956 -1.428888
1.047815 101.6161 7.494805 1.595644 -1.116163 0.5227417 3.265377 -22.81821 1.948512 -0 24.71089 -0 -8.438354 -9.09414 -0.3752045 -7.776405 12.56839 -19.32667 -0 6.775149 -0 16.38119 -14.48757 24.7551 -2.32026 -1.153476 5.169183 1.72827 11.05746 -6.148047 1.716955 21.9466 6.405007 2.896795 -23.58908 9.542295 6.089067 -19.02273 11.44401 86.65394 39.82648 -16.79917 -0 0 12.57205 -8.782125 9.414552 6.325398 4.377967 -19.06209 -3.216027 -90.11581 20.90167 19.71765 0 0 -17.05077 14.0761 11.51082 -1.209277
1.321237 100.8552 10.52227 1.403958 -0.9070268 0.6653381 3.555775 -24.04212 1.643875 -0 23.74315 -0 -8.725877 -8.186676 -0.1835401 -7.674226 12.80933 -18.83215 -0 7.313663 -0 16.36329 -14.77034 24.46231 -2.342135 -1.072833 5.067611 1.751873 11.05256 -6.180581 1.707387 21.93104 6.552892 2.928673 -23.47935 9.657298 6.070693 -18.90828 11.52642 86.81371 40.15124 -16.88389 -0 0 12.32672 -8.719684 9.530219 6.35025 4.409384 -19.10634 -3.233218 -89.63797 20.64746 19.17211 0 0 -17.83413 14.33197 11.18367 -1.567806
1.578506 100.1444 13.80005 1.056651 -0.3386824 0.8361543 4.261454 -26.10206 1.848297 -0 22.88533 -0 -8.970021 -7.03371 -0.03668656 -7.560028 13.08891 -18.15857 -0 8.381596 -0 16.80625 -14.87193 24.32479 -2.335633 -1.070506 4.949357 1.903428 11.02087 -6.326069 1.666609 21.85897 6.67966 2.911944 -23.62927 9.776412 6.011476 -18.82935 11.6049 87.05901 40.20933 -17.28846 -0 0 12.03091 -8.468312 9.562478 6.290087 4.459026 -19.24115 -3.24966 -89.27935 20.62355 18.75022 0 0 -18.82117 14.47917 10.86354 -1.745541
1.825121 99.45921 17.29646 0.7565346 0.1113426 1.050206 4.847394 -27.70534 2.029893 -0 22.1567 -0 -9.173341 -6.051558 0.08376033 -7.445446 13.3398 -17.59572 -0 9.392595 -0 16.98039 -14.97435 24.1355 -2.348051 -1.003572 4.826061 1.959441 10.99511 -6.394651 1.652591 21.8299 6.812468 2.928472 -23.50287 9.862933 5.976038 -18.63777 11.68634 87.22017 40.39702 -17.47384 -0 0 11.71718 -8.431755 9.691149 6.306518 4.527271 -19.33048 -3.246155 -88.77895 20.41146 18.14439 0 0 -19.69249 14.61196 10.55653 -1.973195
2.060954 98.80361 21.12433 0.4196002 0.3808507 1.311571 5.44166 -29.27287 1.937596 -0 21.13123 -0 -9.610543 -4.576572 0.257881 -7.258829 13.72136 -16.76109 -0 11.08124 -0 17.0158 -14.91862 23.64922 -2.34095 -1.00335 4.700279 2.106989 10.94738 -6.540849 1.614369 21.7584 6.927832 2.911072 -23.59646 9.955811 5.905684 -18.50186 11.75706 87.43871 40.39112 -17.87973 -0 0 11.39363 -8.25033 9.735418 6.261063 4.605098 -19.47897 -3.241046 -88.40062 20.37435 17.67816 0 0 -20.65874 14.68576 10.26104 -2.084662
2.289015 98.21057 25.32036 0.06656055 0.5497165 1.617658 6.039336 -30.56539 1.859133 -0 20.23283 -0 -10.10393 -3.074842 0.3842722 -7.037987 14.12579 -15.86304 -0 13.21225 -0 16.85136 -14.72574 23.03565 -2.344606 -0.9610652 4.57604 2.184886 10.90566 -6.631402 1.598163 21.72009 7.030642 2.912667 -23.49286 10.01244 5.857573 -18.28645 11.82225 87.58761 40.44634 -18.1299 -0 0 11.06721 -8.224945 9.843107 6.263879 4.692237 -19.5914 -3.223853 -87.95753 20.22342 17.11768 0 0 -21.47649 14.72334 10.00915 -2.195339
2.50902 97.70841 29.95737 -0.3012842 0.4628406 1.953317 6.598862 -31.40461 1.614019 -0 19.38761 -0 -10.77682 -1.403039 0.4517671 -6.749497 14.58033 -14.7598 -0 16.19934 -0 16.38026 -14.28262 22.1403 -2.334601 -0.9513483 4.458978 2.299142 10.85694 -6.750062 1.570817 21.66566 7.106858 2.895778 -23.49575 10.05296 5.801279 -18.10744 11.87524 87.73519 40.37651 -18.45233 -0 0 10.75734 -8.15831 9.899132 6.2532 4.77168 -19.71591 -3.209435 -87.62008 20.16752 16.68377 0 0 -22.21904 14.70272 9.795207 -2.208952
2.71935 97.35946 35.08646 -0.6886804 0.09685162 2.281007 7.140341 -31.5848 1.304345 -0 18.76755 -0 -11.59884 0.2354416 0.3800829 -6.387836 14.98929 -13.46638 -0 20.26155 -0 15.50097 -13.52766 20.98844 -2.332585 -0.8979123 4.357251 2.332152 10.82651 -6.800889 1.569592 21.65266 7.150963 2.894915 -23.30274 10.0445 5.783743 -17.87177 11.91672 87.79242 40.35893 -18.58195 -0 0 10.48114 -8.251543 10.01325 6.292296 4.83937 -19.78352 -3.19351 -87.27507 20.01715 16.22693 0 0 -22.69131 14.63328 9.664453 -2.196223
2.914845 97.24388 40.72422 -1.080919 -0.6391869 2.525823 7.648993 -30.77343 0.9641898 -0 18.44965 -0 -12.55294 1.621768 0.0861042 -5.941975 15.17034 -11.97331 -0 25.72929 -0 14.09502 -12.36502 19.59991 -2.325868 -0.8348933 4.280546 2.328922 10.81342 -6.816251 1.578407 21.66076 7.151782 2.892656 -23.06439 9.993232 5.796612 -17.65056 11.94322 87.77815 40.30588 -18.60041 -0 0 10.269 -8.416852 10.12573 6.360565 4.876015 -19.80502 -3.187319 -87.02774 19.87756 15.88763 0 0 -22.87413 14.50246 9.622369 -2.105358
3.086457 97.46391 46.81388 -1.45386 -1.773005 2.5724 8.113454 -28.62813 0.7055672 -0 18.40587 -0 -13.53848 2.406766 -0.4983928 -5.406856 14.76384 -10.33741 -0 32.82885 -0 12.08136 -10.73929 18.08796 -2.333133 -0.7036665 4.241848 2.192819 10.83719 -6.713775 1.630271 21.74105 7.098242 2.914491 -22.54013 9.87317 5.878134 -17.37958 11.95172 87.60969 40.34973 -18.27964 -0 0 10.15654 -8.806632 10.31869 6.502685 4.874158 -19.71775 -3.188162 -86.81487 19.61668 15.57321 0 0 -22.57872 14.31002 9.723421 -1.984101
